<mxfile>
    <diagram id="R2lEEEUBdFMjLlhIrx00" name="Page-1">
        <mxGraphModel dx="525" dy="384" grid="0" gridSize="10" guides="1" tooltips="1" connect="1" arrows="1" fold="1" page="1" pageScale="1" pageWidth="850" pageHeight="1100" background="none" math="0" shadow="0" extFonts="Permanent Marker^https://fonts.googleapis.com/css?family=Permanent+Marker">
            <root>
                <mxCell id="0"/>
                <mxCell id="1" parent="0"/>
                <mxCell id="C-vyLk0tnHw3VtMMgP7b-1" value="" style="edgeStyle=entityRelationEdgeStyle;endArrow=ERzeroToMany;startArrow=ERzeroToOne;endFill=1;startFill=1;endSize=6;" parent="1" source="C-vyLk0tnHw3VtMMgP7b-24" edge="1">
                    <mxGeometry width="100" height="100" relative="1" as="geometry">
                        <mxPoint x="340" y="720" as="sourcePoint"/>
                        <mxPoint x="425" y="654" as="targetPoint"/>
                    </mxGeometry>
                </mxCell>
                <mxCell id="14" value="" style="group" parent="1" vertex="1" connectable="0">
                    <mxGeometry x="26" y="30" width="250" height="237" as="geometry"/>
                </mxCell>
                <mxCell id="C-vyLk0tnHw3VtMMgP7b-23" value="users" style="shape=table;startSize=30;container=1;collapsible=1;childLayout=tableLayout;fixedRows=1;rowLines=0;fontStyle=1;align=center;resizeLast=1;" parent="14" vertex="1">
                    <mxGeometry width="250" height="237" as="geometry"/>
                </mxCell>
                <mxCell id="C-vyLk0tnHw3VtMMgP7b-24" value="" style="shape=partialRectangle;collapsible=0;dropTarget=0;pointerEvents=0;fillColor=none;points=[[0,0.5],[1,0.5]];portConstraint=eastwest;top=0;left=0;right=0;bottom=1;fontStyle=2" parent="C-vyLk0tnHw3VtMMgP7b-23" vertex="1">
                    <mxGeometry y="30" width="250" height="21" as="geometry"/>
                </mxCell>
                <mxCell id="C-vyLk0tnHw3VtMMgP7b-25" value="PK" style="shape=partialRectangle;overflow=hidden;connectable=0;fillColor=none;top=0;left=0;bottom=0;right=0;fontStyle=1;" parent="C-vyLk0tnHw3VtMMgP7b-24" vertex="1">
                    <mxGeometry width="30" height="21" as="geometry"/>
                </mxCell>
                <mxCell id="C-vyLk0tnHw3VtMMgP7b-26" value="id [bigint NOT NULL]" style="shape=partialRectangle;overflow=hidden;connectable=0;fillColor=none;top=0;left=0;bottom=0;right=0;align=left;spacingLeft=6;fontStyle=1;" parent="C-vyLk0tnHw3VtMMgP7b-24" vertex="1">
                    <mxGeometry x="30" width="220" height="21" as="geometry"/>
                </mxCell>
                <mxCell id="C-vyLk0tnHw3VtMMgP7b-27" value="" style="shape=partialRectangle;collapsible=0;dropTarget=0;pointerEvents=0;fillColor=none;points=[[0,0.5],[1,0.5]];portConstraint=eastwest;top=0;left=0;right=0;bottom=0;" parent="C-vyLk0tnHw3VtMMgP7b-23" vertex="1">
                    <mxGeometry y="51" width="250" height="34" as="geometry"/>
                </mxCell>
                <mxCell id="C-vyLk0tnHw3VtMMgP7b-28" value="" style="shape=partialRectangle;overflow=hidden;connectable=0;fillColor=none;top=0;left=0;bottom=0;right=0;" parent="C-vyLk0tnHw3VtMMgP7b-27" vertex="1">
                    <mxGeometry width="30" height="34" as="geometry"/>
                </mxCell>
                <mxCell id="C-vyLk0tnHw3VtMMgP7b-29" value="user_name [varchar(191) NOT NULL]" style="shape=partialRectangle;overflow=hidden;connectable=0;fillColor=none;top=0;left=0;bottom=0;right=0;align=left;spacingLeft=6;" parent="C-vyLk0tnHw3VtMMgP7b-27" vertex="1">
                    <mxGeometry x="30" width="220" height="34" as="geometry"/>
                </mxCell>
                <mxCell id="6" value="UK" style="shape=partialRectangle;overflow=hidden;connectable=0;fillColor=none;top=0;left=0;bottom=0;right=0;" parent="14" vertex="1">
                    <mxGeometry y="81" width="30" height="19" as="geometry"/>
                </mxCell>
                <mxCell id="7" value="email [varchar(191) NOT NULL]" style="shape=partialRectangle;overflow=hidden;connectable=0;fillColor=none;top=0;left=0;bottom=0;right=0;align=left;spacingLeft=6;" parent="14" vertex="1">
                    <mxGeometry x="30" y="82" width="220" height="16" as="geometry"/>
                </mxCell>
                <mxCell id="8" value="password [varchar(191) NOT NULL]" style="shape=partialRectangle;overflow=hidden;connectable=0;fillColor=none;top=0;left=0;bottom=0;right=0;align=left;spacingLeft=6;" parent="14" vertex="1">
                    <mxGeometry x="30" y="105" width="220" height="16" as="geometry"/>
                </mxCell>
                <mxCell id="9" value="locked_flg [tinyint]" style="shape=partialRectangle;overflow=hidden;connectable=0;fillColor=none;top=0;left=0;bottom=0;right=0;align=left;spacingLeft=6;" parent="14" vertex="1">
                    <mxGeometry x="30" y="128" width="220" height="16" as="geometry"/>
                </mxCell>
                <mxCell id="10" value="error_count [int]" style="shape=partialRectangle;overflow=hidden;connectable=0;fillColor=none;top=0;left=0;bottom=0;right=0;align=left;spacingLeft=6;" parent="14" vertex="1">
                    <mxGeometry x="30" y="151" width="220" height="16" as="geometry"/>
                </mxCell>
                <mxCell id="11" value="remember_token [vachar(100)]" style="shape=partialRectangle;overflow=hidden;connectable=0;fillColor=none;top=0;left=0;bottom=0;right=0;align=left;spacingLeft=6;" parent="14" vertex="1">
                    <mxGeometry x="30" y="171" width="220" height="16" as="geometry"/>
                </mxCell>
                <mxCell id="12" value="created_at [timestamp]" style="shape=partialRectangle;overflow=hidden;connectable=0;fillColor=none;top=0;left=0;bottom=0;right=0;align=left;spacingLeft=6;" parent="14" vertex="1">
                    <mxGeometry x="30" y="191" width="220" height="16" as="geometry"/>
                </mxCell>
                <mxCell id="13" value="updated_at [timestamp]" style="shape=partialRectangle;overflow=hidden;connectable=0;fillColor=none;top=0;left=0;bottom=0;right=0;align=left;spacingLeft=6;" parent="14" vertex="1">
                    <mxGeometry x="30" y="211" width="220" height="16" as="geometry"/>
                </mxCell>
                <mxCell id="15" value="" style="group" parent="1" vertex="1" connectable="0">
                    <mxGeometry x="25" y="290" width="250" height="237" as="geometry"/>
                </mxCell>
                <mxCell id="16" value="shops" style="shape=table;startSize=30;container=1;collapsible=1;childLayout=tableLayout;fixedRows=1;rowLines=0;fontStyle=1;align=center;resizeLast=1;" parent="15" vertex="1">
                    <mxGeometry width="250" height="181" as="geometry"/>
                </mxCell>
                <mxCell id="17" value="" style="shape=partialRectangle;collapsible=0;dropTarget=0;pointerEvents=0;fillColor=none;points=[[0,0.5],[1,0.5]];portConstraint=eastwest;top=0;left=0;right=0;bottom=1;fontStyle=2" parent="16" vertex="1">
                    <mxGeometry y="30" width="250" height="21" as="geometry"/>
                </mxCell>
                <mxCell id="18" value="PK" style="shape=partialRectangle;overflow=hidden;connectable=0;fillColor=none;top=0;left=0;bottom=0;right=0;fontStyle=1;" parent="17" vertex="1">
                    <mxGeometry width="30" height="21" as="geometry"/>
                </mxCell>
                <mxCell id="19" value="id [bigint NOT NULL]" style="shape=partialRectangle;overflow=hidden;connectable=0;fillColor=none;top=0;left=0;bottom=0;right=0;align=left;spacingLeft=6;fontStyle=1;" parent="17" vertex="1">
                    <mxGeometry x="30" width="220" height="21" as="geometry"/>
                </mxCell>
                <mxCell id="20" value="" style="shape=partialRectangle;collapsible=0;dropTarget=0;pointerEvents=0;fillColor=none;points=[[0,0.5],[1,0.5]];portConstraint=eastwest;top=0;left=0;right=0;bottom=0;" parent="16" vertex="1">
                    <mxGeometry y="51" width="250" height="34" as="geometry"/>
                </mxCell>
                <mxCell id="21" value="" style="shape=partialRectangle;overflow=hidden;connectable=0;fillColor=none;top=0;left=0;bottom=0;right=0;" parent="20" vertex="1">
                    <mxGeometry width="30" height="34" as="geometry"/>
                </mxCell>
                <mxCell id="22" value="shop_name [varchar(191) NOT NULL]" style="shape=partialRectangle;overflow=hidden;connectable=0;fillColor=none;top=0;left=0;bottom=0;right=0;align=left;spacingLeft=6;" parent="20" vertex="1">
                    <mxGeometry x="30" width="220" height="34" as="geometry"/>
                </mxCell>
                <mxCell id="24" value="shop_profile [varchar(191) NOT NULL]" style="shape=partialRectangle;overflow=hidden;connectable=0;fillColor=none;top=0;left=0;bottom=0;right=0;align=left;spacingLeft=6;" parent="15" vertex="1">
                    <mxGeometry x="30" y="82" width="220" height="16" as="geometry"/>
                </mxCell>
                <mxCell id="25" value="shop_image [varchar(191) NOT NULL]" style="shape=partialRectangle;overflow=hidden;connectable=0;fillColor=none;top=0;left=0;bottom=0;right=0;align=left;spacingLeft=6;" parent="15" vertex="1">
                    <mxGeometry x="30" y="105" width="220" height="16" as="geometry"/>
                </mxCell>
                <mxCell id="29" value="created_at [timestamp]" style="shape=partialRectangle;overflow=hidden;connectable=0;fillColor=none;top=0;left=0;bottom=0;right=0;align=left;spacingLeft=6;" parent="15" vertex="1">
                    <mxGeometry x="30" y="128" width="220" height="16" as="geometry"/>
                </mxCell>
                <mxCell id="30" value="updated_at [timestamp]" style="shape=partialRectangle;overflow=hidden;connectable=0;fillColor=none;top=0;left=0;bottom=0;right=0;align=left;spacingLeft=6;" parent="15" vertex="1">
                    <mxGeometry x="30" y="148" width="220" height="16" as="geometry"/>
                </mxCell>
                <mxCell id="31" value="" style="group" parent="1" vertex="1" connectable="0">
                    <mxGeometry x="425" y="30" width="252" height="516" as="geometry"/>
                </mxCell>
                <mxCell id="32" value="areas" style="shape=table;startSize=30;container=1;collapsible=1;childLayout=tableLayout;fixedRows=1;rowLines=0;fontStyle=1;align=center;resizeLast=1;" parent="31" vertex="1">
                    <mxGeometry width="250" height="176" as="geometry"/>
                </mxCell>
                <mxCell id="33" value="" style="shape=partialRectangle;collapsible=0;dropTarget=0;pointerEvents=0;fillColor=none;points=[[0,0.5],[1,0.5]];portConstraint=eastwest;top=0;left=0;right=0;bottom=1;fontStyle=2" parent="32" vertex="1">
                    <mxGeometry y="30" width="250" height="21" as="geometry"/>
                </mxCell>
                <mxCell id="34" value="PK" style="shape=partialRectangle;overflow=hidden;connectable=0;fillColor=none;top=0;left=0;bottom=0;right=0;fontStyle=1;" parent="33" vertex="1">
                    <mxGeometry width="30" height="21" as="geometry"/>
                </mxCell>
                <mxCell id="35" value="id [bigint NOT NULL]" style="shape=partialRectangle;overflow=hidden;connectable=0;fillColor=none;top=0;left=0;bottom=0;right=0;align=left;spacingLeft=6;fontStyle=1;" parent="33" vertex="1">
                    <mxGeometry x="30" width="220" height="21" as="geometry"/>
                </mxCell>
                <mxCell id="139" value="" style="shape=partialRectangle;collapsible=0;dropTarget=0;pointerEvents=0;fillColor=none;points=[[0,0.5],[1,0.5]];portConstraint=eastwest;top=0;left=0;right=0;bottom=1;fontStyle=2" parent="32" vertex="1">
                    <mxGeometry y="51" width="250" height="21" as="geometry"/>
                </mxCell>
                <mxCell id="140" value="PK" style="shape=partialRectangle;overflow=hidden;connectable=0;fillColor=none;top=0;left=0;bottom=0;right=0;fontStyle=1;" parent="139" vertex="1">
                    <mxGeometry width="30" height="21" as="geometry"/>
                </mxCell>
                <mxCell id="141" value="id [bigint NOT NULL]" style="shape=partialRectangle;overflow=hidden;connectable=0;fillColor=none;top=0;left=0;bottom=0;right=0;align=left;spacingLeft=6;fontStyle=1;" parent="139" vertex="1">
                    <mxGeometry x="30" width="220" height="21" as="geometry"/>
                </mxCell>
                <mxCell id="36" value="" style="shape=partialRectangle;collapsible=0;dropTarget=0;pointerEvents=0;fillColor=none;points=[[0,0.5],[1,0.5]];portConstraint=eastwest;top=0;left=0;right=0;bottom=0;" parent="32" vertex="1">
                    <mxGeometry y="72" width="250" height="34" as="geometry"/>
                </mxCell>
                <mxCell id="37" value="FK" style="shape=partialRectangle;overflow=hidden;connectable=0;fillColor=none;top=0;left=0;bottom=0;right=0;" parent="36" vertex="1">
                    <mxGeometry width="30" height="34" as="geometry"/>
                </mxCell>
                <mxCell id="38" value="shop_id [bigint NOT NULL]" style="shape=partialRectangle;overflow=hidden;connectable=0;fillColor=none;top=0;left=0;bottom=0;right=0;align=left;spacingLeft=6;" parent="36" vertex="1">
                    <mxGeometry x="30" width="220" height="34" as="geometry"/>
                </mxCell>
                <mxCell id="39" value="shop_area [varchar(191) NOT NULL]" style="shape=partialRectangle;overflow=hidden;connectable=0;fillColor=none;top=0;left=0;bottom=0;right=0;align=left;spacingLeft=6;" parent="31" vertex="1">
                    <mxGeometry x="30" y="82" width="220" height="16" as="geometry"/>
                </mxCell>
                <mxCell id="41" value="created_at timestamp" style="shape=partialRectangle;overflow=hidden;connectable=0;fillColor=none;top=0;left=0;bottom=0;right=0;align=left;spacingLeft=6;" parent="31" vertex="1">
                    <mxGeometry x="30" y="106" width="220" height="16" as="geometry"/>
                </mxCell>
                <mxCell id="42" value="updated_at timestamp" style="shape=partialRectangle;overflow=hidden;connectable=0;fillColor=none;top=0;left=0;bottom=0;right=0;align=left;spacingLeft=6;" parent="31" vertex="1">
                    <mxGeometry x="30" y="126" width="220" height="16" as="geometry"/>
                </mxCell>
                <mxCell id="44" value="" style="group" parent="31" vertex="1" connectable="0">
                    <mxGeometry y="188" width="250" height="328" as="geometry"/>
                </mxCell>
                <mxCell id="45" value="genres" style="shape=table;startSize=30;container=1;collapsible=1;childLayout=tableLayout;fixedRows=1;rowLines=0;fontStyle=1;align=center;resizeLast=1;" parent="44" vertex="1">
                    <mxGeometry width="250" height="155" as="geometry"/>
                </mxCell>
                <mxCell id="46" value="" style="shape=partialRectangle;collapsible=0;dropTarget=0;pointerEvents=0;fillColor=none;points=[[0,0.5],[1,0.5]];portConstraint=eastwest;top=0;left=0;right=0;bottom=1;fontStyle=2" parent="45" vertex="1">
                    <mxGeometry y="30" width="250" height="21" as="geometry"/>
                </mxCell>
                <mxCell id="47" value="PK" style="shape=partialRectangle;overflow=hidden;connectable=0;fillColor=none;top=0;left=0;bottom=0;right=0;fontStyle=1;" parent="46" vertex="1">
                    <mxGeometry width="30" height="21" as="geometry"/>
                </mxCell>
                <mxCell id="48" value="id [bigint NOT NULL]" style="shape=partialRectangle;overflow=hidden;connectable=0;fillColor=none;top=0;left=0;bottom=0;right=0;align=left;spacingLeft=6;fontStyle=1;" parent="46" vertex="1">
                    <mxGeometry x="30" width="220" height="21" as="geometry"/>
                </mxCell>
                <mxCell id="49" value="" style="shape=partialRectangle;collapsible=0;dropTarget=0;pointerEvents=0;fillColor=none;points=[[0,0.5],[1,0.5]];portConstraint=eastwest;top=0;left=0;right=0;bottom=0;" parent="45" vertex="1">
                    <mxGeometry y="51" width="250" height="34" as="geometry"/>
                </mxCell>
                <mxCell id="50" value="FK" style="shape=partialRectangle;overflow=hidden;connectable=0;fillColor=none;top=0;left=0;bottom=0;right=0;" parent="49" vertex="1">
                    <mxGeometry width="30" height="34" as="geometry"/>
                </mxCell>
                <mxCell id="51" value="shop_id [bigint NOT NULL]" style="shape=partialRectangle;overflow=hidden;connectable=0;fillColor=none;top=0;left=0;bottom=0;right=0;align=left;spacingLeft=6;" parent="49" vertex="1">
                    <mxGeometry x="30" width="220" height="34" as="geometry"/>
                </mxCell>
                <mxCell id="52" value="shop_genre [varchar(191) NOT NULL]" style="shape=partialRectangle;overflow=hidden;connectable=0;fillColor=none;top=0;left=0;bottom=0;right=0;align=left;spacingLeft=6;" parent="44" vertex="1">
                    <mxGeometry x="30" y="82" width="220" height="16" as="geometry"/>
                </mxCell>
                <mxCell id="53" value="created_at timestamp" style="shape=partialRectangle;overflow=hidden;connectable=0;fillColor=none;top=0;left=0;bottom=0;right=0;align=left;spacingLeft=6;" parent="44" vertex="1">
                    <mxGeometry x="30" y="106" width="220" height="16" as="geometry"/>
                </mxCell>
                <mxCell id="54" value="updated_at timestamp" style="shape=partialRectangle;overflow=hidden;connectable=0;fillColor=none;top=0;left=0;bottom=0;right=0;align=left;spacingLeft=6;" parent="44" vertex="1">
                    <mxGeometry x="30" y="126" width="220" height="16" as="geometry"/>
                </mxCell>
                <mxCell id="134" value="" style="group" parent="44" vertex="1" connectable="0">
                    <mxGeometry x="-2" y="172" width="250" height="156" as="geometry"/>
                </mxCell>
                <mxCell id="56" value="favorites" style="shape=table;startSize=30;container=1;collapsible=1;childLayout=tableLayout;fixedRows=1;rowLines=0;fontStyle=1;align=center;resizeLast=1;" parent="134" vertex="1">
                    <mxGeometry width="250" height="151" as="geometry"/>
                </mxCell>
                <mxCell id="57" value="" style="shape=partialRectangle;collapsible=0;dropTarget=0;pointerEvents=0;fillColor=none;points=[[0,0.5],[1,0.5]];portConstraint=eastwest;top=0;left=0;right=0;bottom=1;fontStyle=2" parent="56" vertex="1">
                    <mxGeometry y="30" width="250" height="21" as="geometry"/>
                </mxCell>
                <mxCell id="58" value="PK" style="shape=partialRectangle;overflow=hidden;connectable=0;fillColor=none;top=0;left=0;bottom=0;right=0;fontStyle=1;" parent="57" vertex="1">
                    <mxGeometry width="30" height="21" as="geometry"/>
                </mxCell>
                <mxCell id="59" value="id [bigint NOT NULL]" style="shape=partialRectangle;overflow=hidden;connectable=0;fillColor=none;top=0;left=0;bottom=0;right=0;align=left;spacingLeft=6;fontStyle=1;" parent="57" vertex="1">
                    <mxGeometry x="30" width="220" height="21" as="geometry"/>
                </mxCell>
                <mxCell id="60" value="" style="shape=partialRectangle;collapsible=0;dropTarget=0;pointerEvents=0;fillColor=none;points=[[0,0.5],[1,0.5]];portConstraint=eastwest;top=0;left=0;right=0;bottom=0;" parent="56" vertex="1">
                    <mxGeometry y="51" width="250" height="34" as="geometry"/>
                </mxCell>
                <mxCell id="61" value="FK1" style="shape=partialRectangle;overflow=hidden;connectable=0;fillColor=none;top=0;left=0;bottom=0;right=0;" parent="60" vertex="1">
                    <mxGeometry width="30" height="34" as="geometry"/>
                </mxCell>
                <mxCell id="62" value="shop_id [bigint NOT NULL]" style="shape=partialRectangle;overflow=hidden;connectable=0;fillColor=none;top=0;left=0;bottom=0;right=0;align=left;spacingLeft=6;" parent="60" vertex="1">
                    <mxGeometry x="30" width="220" height="34" as="geometry"/>
                </mxCell>
                <mxCell id="63" value="user_id [bigint NOT NULL]" style="shape=partialRectangle;overflow=hidden;connectable=0;fillColor=none;top=0;left=0;bottom=0;right=0;align=left;spacingLeft=6;" parent="134" vertex="1">
                    <mxGeometry x="30" y="82" width="220" height="16" as="geometry"/>
                </mxCell>
                <mxCell id="64" value="created_at timestamp" style="shape=partialRectangle;overflow=hidden;connectable=0;fillColor=none;top=0;left=0;bottom=0;right=0;align=left;spacingLeft=6;" parent="134" vertex="1">
                    <mxGeometry x="30" y="106" width="220" height="16" as="geometry"/>
                </mxCell>
                <mxCell id="65" value="updated_at timestamp" style="shape=partialRectangle;overflow=hidden;connectable=0;fillColor=none;top=0;left=0;bottom=0;right=0;align=left;spacingLeft=6;" parent="134" vertex="1">
                    <mxGeometry x="30" y="126" width="220" height="16" as="geometry"/>
                </mxCell>
                <mxCell id="68" value="FK2" style="shape=partialRectangle;overflow=hidden;connectable=0;fillColor=none;top=0;left=0;bottom=0;right=0;" parent="134" vertex="1">
                    <mxGeometry x="1" y="63" width="30" height="56" as="geometry"/>
                </mxCell>
                <mxCell id="81" value="" style="group" parent="1" vertex="1" connectable="0">
                    <mxGeometry x="423" y="562" width="250" height="239" as="geometry"/>
                </mxCell>
                <mxCell id="82" value="" style="group" parent="81" vertex="1" connectable="0">
                    <mxGeometry width="250" height="239" as="geometry"/>
                </mxCell>
                <mxCell id="83" value="reservations" style="shape=table;startSize=30;container=1;collapsible=1;childLayout=tableLayout;fixedRows=1;rowLines=0;fontStyle=1;align=center;resizeLast=1;" parent="82" vertex="1">
                    <mxGeometry width="250" height="218" as="geometry"/>
                </mxCell>
                <mxCell id="84" value="" style="shape=partialRectangle;collapsible=0;dropTarget=0;pointerEvents=0;fillColor=none;points=[[0,0.5],[1,0.5]];portConstraint=eastwest;top=0;left=0;right=0;bottom=1;fontStyle=2" parent="83" vertex="1">
                    <mxGeometry y="30" width="250" height="21" as="geometry"/>
                </mxCell>
                <mxCell id="85" value="PK" style="shape=partialRectangle;overflow=hidden;connectable=0;fillColor=none;top=0;left=0;bottom=0;right=0;fontStyle=1;" parent="84" vertex="1">
                    <mxGeometry width="30" height="21" as="geometry"/>
                </mxCell>
                <mxCell id="86" value="id [bigint NOT NULL]" style="shape=partialRectangle;overflow=hidden;connectable=0;fillColor=none;top=0;left=0;bottom=0;right=0;align=left;spacingLeft=6;fontStyle=1;" parent="84" vertex="1">
                    <mxGeometry x="30" width="220" height="21" as="geometry"/>
                </mxCell>
                <mxCell id="87" value="" style="shape=partialRectangle;collapsible=0;dropTarget=0;pointerEvents=0;fillColor=none;points=[[0,0.5],[1,0.5]];portConstraint=eastwest;top=0;left=0;right=0;bottom=0;" parent="83" vertex="1">
                    <mxGeometry y="51" width="250" height="34" as="geometry"/>
                </mxCell>
                <mxCell id="88" value="FK1" style="shape=partialRectangle;overflow=hidden;connectable=0;fillColor=none;top=0;left=0;bottom=0;right=0;" parent="87" vertex="1">
                    <mxGeometry width="30" height="34" as="geometry"/>
                </mxCell>
                <mxCell id="89" value="shop_id [bigint NOT NULL]" style="shape=partialRectangle;overflow=hidden;connectable=0;fillColor=none;top=0;left=0;bottom=0;right=0;align=left;spacingLeft=6;" parent="87" vertex="1">
                    <mxGeometry x="30" width="220" height="34" as="geometry"/>
                </mxCell>
                <mxCell id="90" value="user_id [bigint NOT NULL]" style="shape=partialRectangle;overflow=hidden;connectable=0;fillColor=none;top=0;left=0;bottom=0;right=0;align=left;spacingLeft=6;" parent="82" vertex="1">
                    <mxGeometry x="30" y="82" width="220" height="16" as="geometry"/>
                </mxCell>
                <mxCell id="91" value="created_at timestamp" style="shape=partialRectangle;overflow=hidden;connectable=0;fillColor=none;top=0;left=0;bottom=0;right=0;align=left;spacingLeft=6;" parent="82" vertex="1">
                    <mxGeometry x="30" y="171" width="220" height="16" as="geometry"/>
                </mxCell>
                <mxCell id="92" value="updated_at timestamp" style="shape=partialRectangle;overflow=hidden;connectable=0;fillColor=none;top=0;left=0;bottom=0;right=0;align=left;spacingLeft=6;" parent="82" vertex="1">
                    <mxGeometry x="30" y="191" width="220" height="16" as="geometry"/>
                </mxCell>
                <mxCell id="94" value="reservation_date [date NOT NULL]" style="shape=partialRectangle;overflow=hidden;connectable=0;fillColor=none;top=0;left=0;bottom=0;right=0;align=left;spacingLeft=6;" parent="82" vertex="1">
                    <mxGeometry x="30" y="106" width="220" height="16" as="geometry"/>
                </mxCell>
                <mxCell id="95" value="reservation_time [time NOT NULL]" style="shape=partialRectangle;overflow=hidden;connectable=0;fillColor=none;top=0;left=0;bottom=0;right=0;align=left;spacingLeft=6;" parent="82" vertex="1">
                    <mxGeometry x="30" y="129" width="220" height="16" as="geometry"/>
                </mxCell>
                <mxCell id="96" value="reservation_number [int NOT NULL]" style="shape=partialRectangle;overflow=hidden;connectable=0;fillColor=none;top=0;left=0;bottom=0;right=0;align=left;spacingLeft=6;" parent="82" vertex="1">
                    <mxGeometry x="30" y="151" width="220" height="16" as="geometry"/>
                </mxCell>
                <mxCell id="93" value="FK2" style="shape=partialRectangle;overflow=hidden;connectable=0;fillColor=none;top=0;left=0;bottom=0;right=0;" parent="81" vertex="1">
                    <mxGeometry x="1" y="74" width="30" height="34" as="geometry"/>
                </mxCell>
                <mxCell id="97" value="" style="group" parent="1" vertex="1" connectable="0">
                    <mxGeometry x="425" y="798" width="250" height="451" as="geometry"/>
                </mxCell>
                <mxCell id="98" value="" style="group" parent="97" vertex="1" connectable="0">
                    <mxGeometry width="250" height="451" as="geometry"/>
                </mxCell>
                <mxCell id="99" value="reviews" style="shape=table;startSize=30;container=1;collapsible=1;childLayout=tableLayout;fixedRows=1;rowLines=0;fontStyle=1;align=center;resizeLast=1;" parent="98" vertex="1">
                    <mxGeometry width="250" height="197" as="geometry"/>
                </mxCell>
                <mxCell id="100" value="" style="shape=partialRectangle;collapsible=0;dropTarget=0;pointerEvents=0;fillColor=none;points=[[0,0.5],[1,0.5]];portConstraint=eastwest;top=0;left=0;right=0;bottom=1;fontStyle=2" parent="99" vertex="1">
                    <mxGeometry y="30" width="250" height="21" as="geometry"/>
                </mxCell>
                <mxCell id="101" value="PK" style="shape=partialRectangle;overflow=hidden;connectable=0;fillColor=none;top=0;left=0;bottom=0;right=0;fontStyle=1;" parent="100" vertex="1">
                    <mxGeometry width="30" height="21" as="geometry"/>
                </mxCell>
                <mxCell id="102" value="id [bigint NOT NULL]" style="shape=partialRectangle;overflow=hidden;connectable=0;fillColor=none;top=0;left=0;bottom=0;right=0;align=left;spacingLeft=6;fontStyle=1;" parent="100" vertex="1">
                    <mxGeometry x="30" width="220" height="21" as="geometry"/>
                </mxCell>
                <mxCell id="103" value="" style="shape=partialRectangle;collapsible=0;dropTarget=0;pointerEvents=0;fillColor=none;points=[[0,0.5],[1,0.5]];portConstraint=eastwest;top=0;left=0;right=0;bottom=0;" parent="99" vertex="1">
                    <mxGeometry y="51" width="250" height="34" as="geometry"/>
                </mxCell>
                <mxCell id="104" value="FK1" style="shape=partialRectangle;overflow=hidden;connectable=0;fillColor=none;top=0;left=0;bottom=0;right=0;" parent="103" vertex="1">
                    <mxGeometry width="30" height="34" as="geometry"/>
                </mxCell>
                <mxCell id="105" value="shop_id [bigint NOT NULL]" style="shape=partialRectangle;overflow=hidden;connectable=0;fillColor=none;top=0;left=0;bottom=0;right=0;align=left;spacingLeft=6;" parent="103" vertex="1">
                    <mxGeometry x="30" width="220" height="34" as="geometry"/>
                </mxCell>
                <mxCell id="106" value="user_id [bigint NOT NULL]" style="shape=partialRectangle;overflow=hidden;connectable=0;fillColor=none;top=0;left=0;bottom=0;right=0;align=left;spacingLeft=6;" parent="98" vertex="1">
                    <mxGeometry x="30" y="82" width="220" height="16" as="geometry"/>
                </mxCell>
                <mxCell id="107" value="created_at timestamp" style="shape=partialRectangle;overflow=hidden;connectable=0;fillColor=none;top=0;left=0;bottom=0;right=0;align=left;spacingLeft=6;" parent="98" vertex="1">
                    <mxGeometry x="30" y="152" width="220" height="16" as="geometry"/>
                </mxCell>
                <mxCell id="108" value="updated_at timestamp" style="shape=partialRectangle;overflow=hidden;connectable=0;fillColor=none;top=0;left=0;bottom=0;right=0;align=left;spacingLeft=6;" parent="98" vertex="1">
                    <mxGeometry x="30" y="172" width="220" height="16" as="geometry"/>
                </mxCell>
                <mxCell id="109" value="shop_star [tinyint NOT NULL]" style="shape=partialRectangle;overflow=hidden;connectable=0;fillColor=none;top=0;left=0;bottom=0;right=0;align=left;spacingLeft=6;" parent="98" vertex="1">
                    <mxGeometry x="30" y="106" width="220" height="16" as="geometry"/>
                </mxCell>
                <mxCell id="110" value="user_comment [varchar(191) NOT NULL]" style="shape=partialRectangle;overflow=hidden;connectable=0;fillColor=none;top=0;left=0;bottom=0;right=0;align=left;spacingLeft=6;" parent="98" vertex="1">
                    <mxGeometry x="30" y="129" width="220" height="16" as="geometry"/>
                </mxCell>
                <mxCell id="115" value="" style="group" parent="98" vertex="1" connectable="0">
                    <mxGeometry y="212" width="250" height="239" as="geometry"/>
                </mxCell>
                <mxCell id="116" value="" style="group" parent="115" vertex="1" connectable="0">
                    <mxGeometry width="250" height="239" as="geometry"/>
                </mxCell>
                <mxCell id="136" value="" style="group" parent="116" vertex="1" connectable="0">
                    <mxGeometry width="250" height="152" as="geometry"/>
                </mxCell>
                <mxCell id="117" value="visits" style="shape=table;startSize=30;container=1;collapsible=1;childLayout=tableLayout;fixedRows=1;rowLines=0;fontStyle=1;align=center;resizeLast=1;" parent="136" vertex="1">
                    <mxGeometry width="250" height="152" as="geometry"/>
                </mxCell>
                <mxCell id="118" value="" style="shape=partialRectangle;collapsible=0;dropTarget=0;pointerEvents=0;fillColor=none;points=[[0,0.5],[1,0.5]];portConstraint=eastwest;top=0;left=0;right=0;bottom=1;fontStyle=2" parent="117" vertex="1">
                    <mxGeometry y="30" width="250" height="21" as="geometry"/>
                </mxCell>
                <mxCell id="119" value="PK" style="shape=partialRectangle;overflow=hidden;connectable=0;fillColor=none;top=0;left=0;bottom=0;right=0;fontStyle=1;" parent="118" vertex="1">
                    <mxGeometry width="30" height="21" as="geometry"/>
                </mxCell>
                <mxCell id="120" value="id [bigint NOT NULL]" style="shape=partialRectangle;overflow=hidden;connectable=0;fillColor=none;top=0;left=0;bottom=0;right=0;align=left;spacingLeft=6;fontStyle=1;" parent="118" vertex="1">
                    <mxGeometry x="30" width="220" height="21" as="geometry"/>
                </mxCell>
                <mxCell id="121" value="" style="shape=partialRectangle;collapsible=0;dropTarget=0;pointerEvents=0;fillColor=none;points=[[0,0.5],[1,0.5]];portConstraint=eastwest;top=0;left=0;right=0;bottom=0;" parent="117" vertex="1">
                    <mxGeometry y="51" width="250" height="34" as="geometry"/>
                </mxCell>
                <mxCell id="122" value="FK1" style="shape=partialRectangle;overflow=hidden;connectable=0;fillColor=none;top=0;left=0;bottom=0;right=0;" parent="121" vertex="1">
                    <mxGeometry width="30" height="34" as="geometry"/>
                </mxCell>
                <mxCell id="123" value="shop_id [bigint NOT NULL]" style="shape=partialRectangle;overflow=hidden;connectable=0;fillColor=none;top=0;left=0;bottom=0;right=0;align=left;spacingLeft=6;" parent="121" vertex="1">
                    <mxGeometry x="30" width="220" height="34" as="geometry"/>
                </mxCell>
                <mxCell id="124" value="user_id [bigint NOT NULL]" style="shape=partialRectangle;overflow=hidden;connectable=0;fillColor=none;top=0;left=0;bottom=0;right=0;align=left;spacingLeft=6;" parent="136" vertex="1">
                    <mxGeometry x="30" y="82" width="220" height="16" as="geometry"/>
                </mxCell>
                <mxCell id="125" value="created_at timestamp" style="shape=partialRectangle;overflow=hidden;connectable=0;fillColor=none;top=0;left=0;bottom=0;right=0;align=left;spacingLeft=6;" parent="136" vertex="1">
                    <mxGeometry x="30" y="106" width="220" height="16" as="geometry"/>
                </mxCell>
                <mxCell id="126" value="updated_at timestamp" style="shape=partialRectangle;overflow=hidden;connectable=0;fillColor=none;top=0;left=0;bottom=0;right=0;align=left;spacingLeft=6;" parent="136" vertex="1">
                    <mxGeometry x="30" y="126" width="220" height="16" as="geometry"/>
                </mxCell>
                <mxCell id="129" value="FK2" style="shape=partialRectangle;overflow=hidden;connectable=0;fillColor=none;top=0;left=0;bottom=0;right=0;" parent="115" vertex="1">
                    <mxGeometry x="1" y="74" width="30" height="34" as="geometry"/>
                </mxCell>
                <mxCell id="112" value="FK2" style="shape=partialRectangle;overflow=hidden;connectable=0;fillColor=none;top=0;left=0;bottom=0;right=0;" parent="97" vertex="1">
                    <mxGeometry x="1" y="74" width="30" height="34" as="geometry"/>
                </mxCell>
                <mxCell id="131" value="" style="edgeStyle=entityRelationEdgeStyle;endArrow=ERzeroToMany;startArrow=ERone;endFill=1;startFill=0;endSize=6;exitX=1.002;exitY=0.097;exitDx=0;exitDy=0;exitPerimeter=0;entryX=0;entryY=0.5;entryDx=0;entryDy=0;" parent="1" source="16" target="36" edge="1">
                    <mxGeometry width="100" height="100" relative="1" as="geometry">
                        <mxPoint x="286" y="80.5" as="sourcePoint"/>
                        <mxPoint x="460" y="882" as="targetPoint"/>
                    </mxGeometry>
                </mxCell>
                <mxCell id="132" value="" style="edgeStyle=entityRelationEdgeStyle;endArrow=ERone;startArrow=ERone;endFill=0;startFill=0;endSize=6;entryX=0;entryY=0.25;entryDx=0;entryDy=0;" parent="1" target="45" edge="1">
                    <mxGeometry width="100" height="100" relative="1" as="geometry">
                        <mxPoint x="276" y="308" as="sourcePoint"/>
                        <mxPoint x="435" y="108" as="targetPoint"/>
                    </mxGeometry>
                </mxCell>
                <mxCell id="133" value="" style="edgeStyle=entityRelationEdgeStyle;endArrow=ERzeroToMany;startArrow=ERzeroToOne;endFill=1;startFill=1;endSize=6;entryX=0;entryY=0.5;entryDx=0;entryDy=0;exitX=1;exitY=0.5;exitDx=0;exitDy=0;" parent="1" source="20" target="60" edge="1">
                    <mxGeometry width="100" height="100" relative="1" as="geometry">
                        <mxPoint x="277" y="329" as="sourcePoint"/>
                        <mxPoint x="418" y="419" as="targetPoint"/>
                    </mxGeometry>
                </mxCell>
                <mxCell id="135" value="" style="edgeStyle=entityRelationEdgeStyle;endArrow=ERzeroToMany;startArrow=ERzeroToOne;endFill=1;startFill=1;endSize=6;entryX=0;entryY=0.5;entryDx=0;entryDy=0;exitX=1;exitY=0.5;exitDx=0;exitDy=0;" parent="1" source="20" target="87" edge="1">
                    <mxGeometry width="100" height="100" relative="1" as="geometry">
                        <mxPoint x="276" y="327" as="sourcePoint"/>
                        <mxPoint x="433" y="468" as="targetPoint"/>
                    </mxGeometry>
                </mxCell>
                <mxCell id="137" value="" style="edgeStyle=entityRelationEdgeStyle;endArrow=ERzeroToMany;startArrow=ERzeroToOne;endFill=1;startFill=1;endSize=6;exitX=1;exitY=0.5;exitDx=0;exitDy=0;" parent="1" source="C-vyLk0tnHw3VtMMgP7b-24" edge="1">
                    <mxGeometry width="100" height="100" relative="1" as="geometry">
                        <mxPoint x="286" y="80.5" as="sourcePoint"/>
                        <mxPoint x="426" y="889" as="targetPoint"/>
                    </mxGeometry>
                </mxCell>
                <mxCell id="138" value="" style="edgeStyle=entityRelationEdgeStyle;endArrow=ERzeroToMany;startArrow=ERzeroToOne;endFill=1;startFill=1;endSize=6;exitX=1;exitY=0.5;exitDx=0;exitDy=0;" parent="1" source="C-vyLk0tnHw3VtMMgP7b-24" edge="1">
                    <mxGeometry width="100" height="100" relative="1" as="geometry">
                        <mxPoint x="279" y="81" as="sourcePoint"/>
                        <mxPoint x="423" y="1100" as="targetPoint"/>
                    </mxGeometry>
                </mxCell>
                <mxCell id="142" value="" style="edgeStyle=entityRelationEdgeStyle;endArrow=ERzeroToMany;startArrow=ERzeroToOne;endFill=1;startFill=1;endSize=6;entryX=0;entryY=0.5;entryDx=0;entryDy=0;exitX=1;exitY=0.5;exitDx=0;exitDy=0;" parent="1" source="20" target="103" edge="1">
                    <mxGeometry width="100" height="100" relative="1" as="geometry">
                        <mxPoint x="286" y="362" as="sourcePoint"/>
                        <mxPoint x="433" y="640" as="targetPoint"/>
                    </mxGeometry>
                </mxCell>
                <mxCell id="143" value="" style="edgeStyle=entityRelationEdgeStyle;endArrow=ERzeroToMany;startArrow=ERzeroToOne;endFill=1;startFill=1;endSize=6;exitX=1;exitY=0.5;exitDx=0;exitDy=0;" parent="1" source="20" edge="1">
                    <mxGeometry width="100" height="100" relative="1" as="geometry">
                        <mxPoint x="285" y="368" as="sourcePoint"/>
                        <mxPoint x="427" y="1079" as="targetPoint"/>
                    </mxGeometry>
                </mxCell>
            </root>
        </mxGraphModel>
    </diagram>
</mxfile>